<?xml version="1.0" standalone="no"?><!DOCTYPE svg PUBLIC "-//W3C//DTD SVG 1.1//EN" "http://www.w3.org/Graphics/SVG/1.1/DTD/svg11.dtd"><svg t="1770649888651" class="icon" viewBox="0 0 1024 1024" version="1.1" xmlns="http://www.w3.org/2000/svg" p-id="10409" xmlns:xlink="http://www.w3.org/1999/xlink" width="200" height="200"><path d="M0 0m146.285714 0l731.428572 0q146.285714 0 146.285714 146.285714l0 731.428572q0 146.285714-146.285714 146.285714l-731.428572 0q-146.285714 0-146.285714-146.285714l0-731.428572q0-146.285714 146.285714-146.285714Z" fill="#ffffff" p-id="10410"></path><path d="M162.230857 342.710857c43.008-66.998857 102.692571-110.738286 170.057143-111.104h0.877714c67.145143 0 123.245714 32.658286 190.281143 118.345143 13.092571-17.773714 26.624-34.523429 40.630857-49.590857h0.036572v-0.036572l0.512-0.585142c38.070857-40.557714 80.310857-68.132571 130.486857-68.132572 47.616 0 92.16 22.198857 129.462857 60.050286l0.548571 0.548571c62.902857 64.146286 105.289143 172.763429 107.373715 294.290286v0.841143c0.073143 2.889143 0.073143 5.778286 0.073143 8.667428 0 56.685714-11.410286 103.387429-33.133715 137.033143l-0.475428 0.731429v-0.036572l-1.499429 2.194286a124.635429 124.635429 0 0 1-47.908571 42.678857c-4.681143 2.340571-9.545143 4.388571-14.518857 6.107429a143.798857 143.798857 0 0 1-47.396572 7.570286c-18.358857 0-34.889143-2.340571-50.395428-7.533715l-0.036572 0.109715c-24.210286-8.155429-45.568-22.966857-67.876571-46.884572l-0.585143-0.585143h0.036571c-26.368-28.452571-53.76-69.266286-87.369143-125.659428l-34.633142-58.477715h-0.036572l-0.438857-0.658285-6.107429-10.422857a2816.365714 2816.365714 0 0 0-27.977142-46.299429l-61.915429 109.714286c-87.954286 154.258286-137.398857 186.770286-206.189714 186.770285-45.494857 0-82.176-16.822857-108.251429-47.286857l-0.036571 0.036572-0.512-0.585143c-18.834286-22.308571-32-51.785143-38.765715-87.186286l-0.109714-0.731428a311.552 311.552 0 0 1-5.010286-57.270858v-0.841142c0.073143-32.731429 3.254857-65.353143 9.435429-97.499429l0.182857-0.768c11.337143-58.514286 32.475429-112.749714 60.781714-156.891429l0.402286-0.621714z m0 0z m20.260572 264.886857a191.378286 191.378286 0 0 0 2.925714 29.147429v0.109714c3.657143 20.004571 10.642286 35.584 20.589714 46.445714 10.605714 11.702857 25.782857 18.212571 41.545143 17.810286 39.68 0 64.365714-25.124571 135.68-137.289143 0 0 32.475429-51.675429 86.016-134.034285-56.393143-81.005714-93.220571-106.532571-137.252571-106.532572v0.036572h-0.731429c-33.572571 0.365714-64.841143 24.612571-89.965714 62.537142l-0.036572 0.073143-0.365714 0.585143c-23.515429 35.657143-41.581714 83.346286-51.053714 134.765714a441.417143 441.417143 0 0 0-7.350857 85.577143v0.768z m551.094857 63.268572v0.036571c11.190857 12.946286 20.882286 20.845714 30.829714 25.307429v-0.109715c7.936 3.547429 16.018286 4.900571 25.161143 4.900572 6.217143 0.073143 12.251429-0.804571 18.102857-2.56v0.036571c13.604571-4.205714 24.064-13.531429 31.451429-27.355428l0.365714-0.731429v0.073143c8.667429-16.676571 12.909714-39.753143 12.909714-68.278857 0-4.973714-0.073143-9.947429-0.219428-14.884572v-0.841142c-2.925714-104.813714-35.474286-195.510857-82.761143-244.297143l-0.512-0.548572c-23.478857-24.027429-50.614857-37.668571-79.579429-37.668571-26.916571 0-51.2 13.056-76.251428 39.241143h-0.036572l0.036572 0.036571-0.548572 0.585143c-15.36 16.164571-31.085714 37.266286-47.908571 63.268571 13.238857 19.748571 26.075429 39.789714 38.473143 60.086858v-0.073143l0.402285 0.731428 48.932572 81.846857c37.522286 60.562286 61.44 98.084571 80.713143 120.576l0.475428 0.585143-0.036571 0.073143zM470.454857 431.542857z" fill="#ffffff" p-id="10411"></path></svg>